<?xml version="1.0" encoding="UTF-8"?> <svg xmlns="http://www.w3.org/2000/svg" width="601.537" height="611.21" viewBox="0 0 601.537 611.21"><g id="Group_96" data-name="Group 96" transform="translate(624.485 -832.426)"><g id="shadow" opacity="0.1"><g id="Group_95" data-name="Group 95"><ellipse id="Ellipse_11" data-name="Ellipse 11" cx="206.155" cy="27.337" rx="206.155" ry="27.337" transform="translate(-540.002 1388.962)" fill="#1a1552"></ellipse></g></g><path id="Path_339" data-name="Path 339" d="M-27.207,1207.749a111.149,111.149,0,0,0-2.6-20.361,201.58,201.58,0,0,0-5.674-20.361c-1.654-5.026-3.4-9.931-5.091-14.67-1.568-4.4-3.2-8.465-4.884-12.265a135.386,135.386,0,0,0-15.657-26.935c-7.991-10.639-16.472-18.592-24.819-26.935-7.8-7.8-15.477-15.937-22.529-26.935a137.89,137.89,0,0,1-12.4-24.68c-.3-.758-.578-1.508-.856-2.257a152,152,0,0,1-7.369-26.935,186.976,186.976,0,0,1-2.564-26.935c-.323-9.906-.214-18.756-1.217-26.935-1.189-9.7-3.954-18.468-10.87-26.935a57.676,57.676,0,0,0-4.384-4.782c-24.936-24.346-63.828-22.58-81.79-21.764-36.07,1.637-53.727,14.574-73.435,26.546-12.826,7.791-26.521,15.175-46.729,18.768-37.876,6.735-61.8-6.393-85.553-18.768-21.766-11.34-43.392-22.046-75.483-16.26a132.457,132.457,0,0,0-42.839,16.26A162.14,162.14,0,0,0-588.3,951.549a149.254,149.254,0,0,0-20.9,26.935,113.472,113.472,0,0,0-11.958,26.935,80.471,80.471,0,0,0-3.3,24.887c.023.692.059,1.373.1,2.048a59.084,59.084,0,0,0,8.3,26.936c5.917,10.04,14.2,18.284,22.355,26.935,7.578,8.035,15.045,16.425,20.411,26.935a71.782,71.782,0,0,1,7.594,26.935c.02.23.046.454.064.685a73.66,73.66,0,0,1-2.511,26.25,89.517,89.517,0,0,1-8.863,20.361c-4.082,7.071-8.824,13.711-13.527,20.361a217.334,217.334,0,0,0-13.244,20.362,83.315,83.315,0,0,0-8.2,20.361,71.167,71.167,0,0,0-1.97,20.361c.055,1.263.131,2.54.251,3.844a93.09,93.09,0,0,0,3.087,16.517,111.151,111.151,0,0,0,7.992,20.361,125.277,125.277,0,0,0,12.983,20.358,123.876,123.876,0,0,0,20.052,20.361c12.073,9.667,25.746,16.651,39.9,19.5q2.542.512,4.981.865a78.316,78.316,0,0,0,23.521,0c18.945-2.908,34.418-12.431,53.976-20.361a150.94,150.94,0,0,1,60.347-11.75,156.691,156.691,0,0,1,58.511,11.75c14.953,6,28.089,13.464,40.292,20.361,25.947,14.666,47.686,26.748,73.748,16.62a46.639,46.639,0,0,0,21.8-16.62c4.6-6.209,8.077-13.2,12.757-20.361a78.387,78.387,0,0,1,18.661-20.361,92.361,92.361,0,0,1,12.954-8.191c8.453-4.453,16.291-8.474,23.583-12.174,15.634-7.933,28.722-14.38,39.773-20.361,12.7-6.875,22.716-13.141,30.825-20.361a77.756,77.756,0,0,0,16.429-20.361A97.72,97.72,0,0,0-32.87,1239a68.786,68.786,0,0,0,3.623-10.893A76.992,76.992,0,0,0-27.207,1207.749Z" fill="#ededfa"></path><path id="Path_340" data-name="Path 340" d="M-161.685,1314.711q-1.971,0-3.927-.055a.881.881,0,0,1-.869-.9.882.882,0,0,1,.9-.869h.025c2.9.082,5.863.07,8.762-.03a.882.882,0,0,1,.912.85.883.883,0,0,1-.85.913C-158.372,1314.681-160.038,1314.711-161.685,1314.711Zm-12.7-.577h-.081c-2.935-.268-5.9-.634-8.806-1.089a.882.882,0,0,1-.736-1.008A.882.882,0,0,1-183,1311.3c2.872.449,5.8.811,8.7,1.075a.883.883,0,0,1,.795.963.883.883,0,0,1-.874.8Zm26.411-.1a.883.883,0,0,1-.885-.88.882.882,0,0,1,.8-.88c2.894-.285,5.817-.669,8.686-1.14a.883.883,0,0,1,1.032.7.883.883,0,0,1-.7,1.032l-.042.007c-2.908.476-5.868.864-8.8,1.153a.369.369,0,0,1-.087.008Zm-43.824-2.626a.889.889,0,0,1-.193-.021c-2.876-.64-5.768-1.383-8.6-2.208a.881.881,0,0,1-.6-1.094.882.882,0,0,1,1.094-.6c2.79.813,5.646,1.546,8.485,2.179a.883.883,0,0,1,.665,1.057.883.883,0,0,1-.856.687Zm61.217-.225a.883.883,0,0,1-.887-.878.883.883,0,0,1,.687-.864c2.825-.65,5.673-1.405,8.467-2.241a.882.882,0,0,1,1.1.592.883.883,0,0,1-.592,1.1c-2.83.848-5.715,1.612-8.577,2.271a.869.869,0,0,1-.2.025Zm-78.139-4.708a.9.9,0,0,1-.3-.053c-2.773-1.007-5.55-2.116-8.251-3.3a.881.881,0,0,1-.454-1.162.882.882,0,0,1,1.162-.454h0c2.667,1.168,5.407,2.264,8.145,3.257a.882.882,0,0,1,.531,1.128.881.881,0,0,1-.831.584Zm95.022-.351a.882.882,0,0,1-.883-.882.882.882,0,0,1,.576-.827c2.72-1.01,5.445-2.122,8.1-3.306a.882.882,0,0,1,1.171.428.883.883,0,0,1-.428,1.172l-.025.011c-2.687,1.2-5.446,2.327-8.2,3.349a.873.873,0,0,1-.311.058Zm-111.19-6.725a.894.894,0,0,1-.4-.1c-2.613-1.35-5.222-2.807-7.756-4.329a.883.883,0,0,1-.3-1.211.883.883,0,0,1,1.211-.3c2.5,1.5,5.078,2.941,7.658,4.274a.882.882,0,0,1,.386,1.186A.883.883,0,0,1-224.888,1299.4Zm127.265-.446a.883.883,0,0,1-.885-.88.885.885,0,0,1,.473-.783c2.573-1.352,5.134-2.806,7.615-4.32a.883.883,0,0,1,1.207.315.883.883,0,0,1-.289,1.191c-2.511,1.533-5.106,3.005-7.712,4.374a.891.891,0,0,1-.41.1Zm-142.385-8.639a.874.874,0,0,1-.5-.157c-2.418-1.672-4.82-3.448-7.137-5.281a.881.881,0,0,1-.145-1.239.882.882,0,0,1,1.239-.145c2.288,1.808,4.659,3.562,7.047,5.213a.883.883,0,0,1,.225,1.227.883.883,0,0,1-.725.381Zm157.418-.538a.882.882,0,0,1-.878-.886.881.881,0,0,1,.37-.714c2.378-1.668,4.734-3.437,7.006-5.256a.881.881,0,0,1,1.23.2.881.881,0,0,1-.13,1.173c-2.3,1.844-4.689,3.635-7.1,5.324a.875.875,0,0,1-.5.157Zm-171.25-10.4a.879.879,0,0,1-.59-.227c-2.183-1.963-4.338-4.03-6.407-6.141a.882.882,0,0,1-.029-1.248.882.882,0,0,1,1.248-.029.586.586,0,0,1,.042.042c2.041,2.085,4.17,4.126,6.326,6.065a.881.881,0,0,1,.066,1.245.879.879,0,0,1-.656.293Zm185-.622a.882.882,0,0,1-.882-.882.88.88,0,0,1,.288-.652c2.146-1.957,4.261-4.011,6.284-6.1a.881.881,0,0,1,1.246-.042.881.881,0,0,1,.042,1.246l-.019.021c-2.049,2.122-4.19,4.2-6.365,6.184a.876.876,0,0,1-.592.235Zm-197.33-11.975a.881.881,0,0,1-.669-.307c-1.921-2.23-3.8-4.553-5.573-6.9a.882.882,0,0,1,.2-1.232.884.884,0,0,1,1.206.167c1.754,2.32,3.605,4.613,5.5,6.815a.882.882,0,0,1-.092,1.244.888.888,0,0,1-.577.214Zm209.576-.7a.881.881,0,0,1-.88-.884.879.879,0,0,1,.21-.569c1.886-2.22,3.723-4.526,5.459-6.856a.881.881,0,0,1,1.234-.181.883.883,0,0,1,.181,1.235c-1.76,2.36-3.62,4.7-5.531,6.943a.878.878,0,0,1-.674.312Zm-220.2-13.349a.879.879,0,0,1-.737-.4c-1.62-2.451-3.184-4.992-4.648-7.551a.881.881,0,0,1,.327-1.2.883.883,0,0,1,1.2.327c1.446,2.526,2.99,5.034,4.588,7.456a.883.883,0,0,1-.25,1.222.881.881,0,0,1-.485.146Zm230.744-.789a.882.882,0,0,1-.882-.883.875.875,0,0,1,.144-.481c1.589-2.443,3.118-4.965,4.544-7.5a.881.881,0,0,1,1.21-.3.882.882,0,0,1,.327,1.164c-1.444,2.566-2.992,5.122-4.6,7.6a.883.883,0,0,1-.747.4Zm-239.49-14.5a.884.884,0,0,1-.793-.494c-1.3-2.648-2.524-5.367-3.642-8.079a.882.882,0,0,1,.511-1.139.882.882,0,0,1,1.121.466c1.1,2.677,2.314,5.361,3.6,7.975a.885.885,0,0,1-.4,1.18.875.875,0,0,1-.4.095Zm248.145-.876a.869.869,0,0,1-.382-.087.882.882,0,0,1-.413-1.177h0c1.263-2.623,2.457-5.323,3.548-8.022a.882.882,0,0,1,1.149-.487.884.884,0,0,1,.487,1.149h0c-1.1,2.734-2.315,5.468-3.594,8.125a.883.883,0,0,1-.8.5Zm-254.869-15.4a.883.883,0,0,1-.835-.6c-.945-2.786-1.812-5.642-2.578-8.491a.882.882,0,0,1,.684-1.043.883.883,0,0,1,1.016.584c.755,2.812,1.612,5.632,2.544,8.383a.882.882,0,0,1-.553,1.118.873.873,0,0,1-.282.047Zm261.481-.961a.864.864,0,0,1-.277-.045.882.882,0,0,1-.561-1.113h0c.912-2.755,1.747-5.581,2.482-8.4a.881.881,0,0,1,1.055-.667.881.881,0,0,1,.667,1.055c0,.019-.009.038-.014.057-.745,2.855-1.591,5.718-2.516,8.509a.883.883,0,0,1-.837.6Zm-266.055-16.059a.882.882,0,0,1-.865-.708c-.579-2.883-1.073-5.827-1.467-8.751a.881.881,0,0,1,.742-1,.881.881,0,0,1,1,.743l0,.023c.39,2.886.878,5.793,1.449,8.639a.884.884,0,0,1-.691,1.039A.934.934,0,0,1-296.838,1204.143Zm270.5-.993a.937.937,0,0,1-.168-.016.881.881,0,0,1-.7-1.03v0c.55-2.848,1.016-5.758,1.384-8.65a.882.882,0,0,1,.986-.764.882.882,0,0,1,.764.986c-.373,2.93-.845,5.879-1.4,8.763A.882.882,0,0,1-26.338,1203.15ZM-299.2,1186.678a.881.881,0,0,1-.879-.82c-.207-2.932-.323-5.916-.344-8.867a.882.882,0,0,1,.876-.889.9.9,0,0,1,.888.876c.021,2.915.135,5.862.339,8.756a.882.882,0,0,1-.818.942h0Zm275.088-1.01h-.056a.882.882,0,0,1-.825-.936c.183-2.891.276-5.836.276-8.756q0-1.011-.015-2.017a.881.881,0,0,1,.868-.9h.014a.882.882,0,0,1,.882.87q.013,1.019.015,2.042c0,2.956-.095,5.939-.279,8.867a.884.884,0,0,1-.88.825Zm-275.215-16.615h-.05a.881.881,0,0,1-.831-.93c.164-2.952.425-5.925.776-8.838a.882.882,0,0,1,.981-.771.883.883,0,0,1,.771.982c-.346,2.876-.6,5.812-.766,8.725A.883.883,0,0,1-299.322,1169.053Zm275.071-3.035a.883.883,0,0,1-.879-.814c-.226-2.9-.547-5.829-.957-8.707a.883.883,0,0,1,.729-1.014.883.883,0,0,1,1.014.729l0,.036c.414,2.915.741,5.882.968,8.819a.882.882,0,0,1-.811.948h0Zm-272.97-14.463a.963.963,0,0,1-.162-.014.882.882,0,0,1-.706-1.028h0c.537-2.9,1.176-5.813,1.9-8.668a.882.882,0,0,1,1.082-.621.882.882,0,0,1,.628,1.053c-.713,2.818-1.343,5.7-1.874,8.557a.881.881,0,0,1-.868.722Zm270.483-2.985a.882.882,0,0,1-.863-.7c-.593-2.845-1.288-5.71-2.063-8.514a.882.882,0,0,1,.6-1.095.882.882,0,0,1,1.094.6l.008.027c.786,2.84,1.489,5.741,2.09,8.624a.881.881,0,0,1-.681,1.043h0A.916.916,0,0,1-26.738,1148.57Zm-266.165-14.1a.883.883,0,0,1-.27-.043.882.882,0,0,1-.571-1.109h0c.909-2.812,1.919-5.627,3-8.366a.883.883,0,0,1,1.137-.515.882.882,0,0,1,.514,1.137l-.01.027c-1.07,2.7-2.068,5.483-2.962,8.259a.884.884,0,0,1-.835.61Zm261.465-2.885a.881.881,0,0,1-.833-.594c-.955-2.744-2.01-5.491-3.136-8.164a.883.883,0,0,1,.5-1.143.884.884,0,0,1,1.125.458c1.141,2.707,2.208,5.49,3.175,8.271a.883.883,0,0,1-.546,1.123A.875.875,0,0,1-31.438,1131.585Zm-254.971-13.53a.882.882,0,0,1-.884-.882.864.864,0,0,1,.084-.377c1.261-2.668,2.624-5.328,4.05-7.906a.882.882,0,0,1,1.2-.345.883.883,0,0,1,.345,1.2h0c-1.408,2.545-2.754,5.171-4,7.8a.883.883,0,0,1-.792.506Zm248.138-2.689a.883.883,0,0,1-.79-.489c-1.3-2.594-2.693-5.185-4.158-7.7a.881.881,0,0,1,.319-1.206.882.882,0,0,1,1.206.319h0c1.484,2.548,2.9,5.173,4.211,7.8a.883.883,0,0,1-.395,1.183.883.883,0,0,1-.393.093Zm-239.6-12.748a.882.882,0,0,1-.882-.883.881.881,0,0,1,.14-.475c1.588-2.481,3.279-4.944,5.025-7.321a.881.881,0,0,1,1.227-.223.883.883,0,0,1,.223,1.227c-.009.014-.019.027-.029.04-1.723,2.346-3.392,4.778-4.96,7.227a.879.879,0,0,1-.737.409Zm230.737-2.474a.878.878,0,0,1-.733-.39c-1.616-2.409-3.335-4.8-5.109-7.113a.881.881,0,0,1,.163-1.237.882.882,0,0,1,1.237.163h0c1.8,2.34,3.537,4.764,5.174,7.2a.884.884,0,0,1-.242,1.224.874.874,0,0,1-.483.154Zm-220.3-11.74a.884.884,0,0,1-.88-.887.88.88,0,0,1,.2-.561c1.893-2.262,3.882-4.489,5.912-6.62a.882.882,0,0,1,1.247-.031.883.883,0,0,1,.031,1.247c-2,2.1-3.969,4.3-5.838,6.537a.881.881,0,0,1-.67.316Zm209.57-2.236a.874.874,0,0,1-.664-.3c-1.914-2.189-3.925-4.346-5.973-6.41a.882.882,0,0,1,0-1.248.883.883,0,0,1,1.248.005c2.075,2.089,4.109,4.273,6.049,6.492a.883.883,0,0,1-.083,1.245.887.887,0,0,1-.581.218Zm-197.408-10.532a.882.882,0,0,1-.885-.879.879.879,0,0,1,.285-.652c2.162-2,4.417-3.956,6.7-5.814a.881.881,0,0,1,1.242.106.882.882,0,0,1-.106,1.243l-.024.02c-2.255,1.834-4.481,3.766-6.617,5.741A.883.883,0,0,1-255.272,1075.636Zm185-1.974a.882.882,0,0,1-.586-.221c-2.178-1.932-4.447-3.817-6.739-5.6a.883.883,0,0,1-.179-1.235.883.883,0,0,1,1.235-.178l.027.021c2.324,1.808,4.621,3.717,6.827,5.673a.883.883,0,0,1,.073,1.246.883.883,0,0,1-.658.3Zm-171.324-9.145a.881.881,0,0,1-.883-.881.881.881,0,0,1,.37-.719c2.394-1.706,4.878-3.36,7.382-4.914a.883.883,0,0,1,1.215.285.884.884,0,0,1-.285,1.215h0c-2.471,1.535-4.924,3.167-7.288,4.852a.873.873,0,0,1-.515.161Zm157.408-1.688a.872.872,0,0,1-.495-.153c-2.411-1.641-4.9-3.222-7.4-4.7a.881.881,0,0,1-.309-1.209.882.882,0,0,1,1.209-.309c2.533,1.5,5.054,3.1,7.5,4.761a.882.882,0,0,1,.232,1.225.88.88,0,0,1-.732.386Zm-142.442-7.6a.882.882,0,0,1-.882-.882.883.883,0,0,1,.465-.777c2.592-1.388,5.265-2.71,7.945-3.93a.882.882,0,0,1,1.154.472.883.883,0,0,1-.424,1.133c-2.645,1.2-5.283,2.511-7.843,3.88a.882.882,0,0,1-.423.1Zm127.255-1.378a.881.881,0,0,1-.4-.1c-2.6-1.32-5.273-2.57-7.945-3.716a.883.883,0,0,1-.461-1.161.884.884,0,0,1,1.161-.46c2.706,1.162,5.414,2.428,8.047,3.764a.882.882,0,0,1,.388,1.185.881.881,0,0,1-.789.484Zm-111.235-5.915a.883.883,0,0,1-.885-.88.884.884,0,0,1,.571-.827c2.754-1.045,5.577-2.015,8.393-2.881a.882.882,0,0,1,1.1.583.883.883,0,0,1-.583,1.1c-2.781.856-5.568,1.813-8.286,2.845a.9.9,0,0,1-.316.058Zm95.012-1.037a.869.869,0,0,1-.295-.051c-2.741-.972-5.548-1.867-8.346-2.661a.883.883,0,0,1-.61-1.091.884.884,0,0,1,1.091-.609c2.834.8,5.679,1.71,8.454,2.695a.882.882,0,0,1,.539,1.125.883.883,0,0,1-.834.589Zm-78.173-4.14a.882.882,0,0,1-.878-.886.882.882,0,0,1,.678-.854c2.863-.683,5.788-1.281,8.692-1.778a.882.882,0,0,1,1.019.719.882.882,0,0,1-.719,1.02c-2.867.491-5.753,1.082-8.581,1.756a.942.942,0,0,1-.211.019Zm61.218-.67a.9.9,0,0,1-.187-.02c-2.837-.61-5.737-1.137-8.619-1.566a.884.884,0,0,1-.714-1.025.882.882,0,0,1,.974-.721c2.919.434,5.856.969,8.73,1.587a.881.881,0,0,1,.68,1.045.881.881,0,0,1-.865.7Zm-43.848-2.308a.882.882,0,0,1-.892-.872.882.882,0,0,1,.8-.888c2.923-.31,5.9-.53,8.849-.655a.9.9,0,0,1,.918.844.885.885,0,0,1-.844.918c-2.911.123-5.85.341-8.737.647a.718.718,0,0,1-.093,0Zm26.417-.287h-.075c-2.893-.243-5.836-.4-8.748-.456a.883.883,0,0,1-.863-.9.872.872,0,0,1,.881-.864h.019c2.949.061,5.93.216,8.86.462a.881.881,0,0,1,.822.937.882.882,0,0,1-.9.825Z" fill="#b1b6f6"></path><path id="Path_341" data-name="Path 341" d="M-33.471,1230.109c-6.514-14.821-25.207-22.5-36.432-17.792-12.024,5.048-8.409,21.349-18.8,25.468-16.821,6.669-38.8-31.1-55.614-24.81-11.65,4.359-6.044,24.352-20.023,33.385-16.717,10.8-35.369-10.915-57.355-4.812-26.446,7.34-52.456,53.469-35.8,91.747,13.542,31.121,52.034,49.58,73.573,39.747,23.747-10.841,15.937-51.072,38.822-58.854,22.968-7.809,47.638,27,62.117,17.709,12.488-8.015-2.4-36.138,14.961-53.084,10.7-10.439,22.366-5.642,31.179-18.15C-31.188,1252.633-28.883,1240.557-33.471,1230.109Z" fill="#b1b6f6"></path><path id="Path_342" data-name="Path 342" d="M-294.473,1363.652a.942.942,0,0,1-.944-.94.935.935,0,0,1,.268-.66c36.648-37.755,87.3-61.506,123.343-74.783,39.027-14.377,69.816-19.913,70.122-19.967a.942.942,0,0,1,1.085.773.942.942,0,0,1-.756,1.082c-.305.055-30.959,5.569-69.835,19.894-35.845,13.215-86.216,36.824-122.606,74.315A.944.944,0,0,1-294.473,1363.652Z" fill="#ced0f6"></path><path id="Path_343" data-name="Path 343" d="M-454.791,1273.411a.882.882,0,0,1-.887-.878.882.882,0,0,1,.878-.886c2.907-.033,5.854-.153,8.761-.355a.881.881,0,0,1,.941.818.882.882,0,0,1-.818.942h0c-2.94.206-5.922.326-8.864.36Zm-8.817-.154h-.039c-2.939-.139-5.915-.364-8.843-.674a.882.882,0,0,1-.805-.954.883.883,0,0,1,.954-.8l.035,0c2.9.3,5.836.528,8.742.665a.882.882,0,0,1,.839.923.883.883,0,0,1-.88.84Zm26.4-1.073a.882.882,0,0,1-.883-.882.883.883,0,0,1,.772-.875c2.885-.37,5.8-.833,8.66-1.371a.882.882,0,0,1,1.048.676.882.882,0,0,1-.676,1.048l-.046.009c-2.9.545-5.843,1.012-8.761,1.388A1.083,1.083,0,0,1-437.2,1272.184Zm-43.936-.78a.884.884,0,0,1-.146-.012c-2.9-.478-5.827-1.051-8.7-1.7a.882.882,0,0,1-.666-1.055.881.881,0,0,1,1.055-.666h0c2.843.643,5.737,1.208,8.6,1.682a.882.882,0,0,1,.725,1.015.883.883,0,0,1-.867.737Zm61.264-2.483a.882.882,0,0,1-.883-.882.882.882,0,0,1,.67-.856c2.832-.707,5.672-1.5,8.443-2.37a.883.883,0,0,1,1.1.579.882.882,0,0,1-.579,1.1h0c-2.8.876-5.677,1.682-8.542,2.4A.865.865,0,0,1-419.875,1268.921Zm-78.458-1.406a.913.913,0,0,1-.245-.034c-2.826-.818-5.667-1.73-8.443-2.712a.882.882,0,0,1-.549-1.12.883.883,0,0,1,1.121-.549l.016.006c2.743.969,5.551,1.872,8.345,2.679a.882.882,0,0,1,.605,1.091.882.882,0,0,1-.85.639Zm95.289-3.852a.881.881,0,0,1-.884-.88.88.88,0,0,1,.573-.828c2.722-1.029,5.45-2.152,8.108-3.339a.882.882,0,0,1,1.165.445.883.883,0,0,1-.445,1.166c-2.69,1.2-5.449,2.338-8.2,3.379a.876.876,0,0,1-.32.058Zm-111.9-2.025a.893.893,0,0,1-.343-.069c-2.706-1.142-5.419-2.382-8.064-3.686a.882.882,0,0,1-.417-1.176.882.882,0,0,1,1.175-.417l.022.011c2.615,1.289,5.3,2.514,7.97,3.642a.882.882,0,0,1,.471,1.155.882.882,0,0,1-.814.54Zm128-5.161a.882.882,0,0,1-.884-.88.88.88,0,0,1,.476-.785c2.591-1.346,5.168-2.782,7.66-4.268a.881.881,0,0,1,1.193.362.882.882,0,0,1-.293,1.153c-2.522,1.5-5.13,2.957-7.75,4.319a.887.887,0,0,1-.4.095Zm-143.8-2.639a.872.872,0,0,1-.435-.116c-2.549-1.448-5.1-3-7.574-4.6a.881.881,0,0,1-.3-1.212.882.882,0,0,1,1.212-.3l.043.028c2.449,1.587,4.967,3.119,7.487,4.551a.881.881,0,0,1,.331,1.2.881.881,0,0,1-.769.447Zm158.954-6.4a.881.881,0,0,1-.887-.877.88.88,0,0,1,.387-.735c2.406-1.635,4.8-3.364,7.1-5.139a.882.882,0,0,1,1.237.162.883.883,0,0,1-.162,1.238c-2.335,1.8-4.754,3.547-7.188,5.2a.883.883,0,0,1-.492.151Zm-173.734-3.188a.879.879,0,0,1-.521-.171c-1.97-1.446-3.939-2.967-5.852-4.52q-.574-.463-1.143-.935a.882.882,0,0,1-.117-1.243.883.883,0,0,1,1.243-.116q.561.465,1.128.924c1.893,1.535,3.839,3.038,5.785,4.468a.883.883,0,0,1,.189,1.233.885.885,0,0,1-.711.36Zm187.709-7.564a.882.882,0,0,1-.883-.881.881.881,0,0,1,.3-.667c2.19-1.9,4.36-3.9,6.451-5.939a.882.882,0,0,1,1.246.04.883.883,0,0,1-.015,1.223c-2.115,2.063-4.31,4.085-6.526,6.008a.877.877,0,0,1-.582.217Zm-201.293-3.675a.877.877,0,0,1-.6-.236c-2.157-2.005-4.283-4.1-6.319-6.227a.881.881,0,0,1-.009-1.247.881.881,0,0,1,1.247-.009l.036.037c2.013,2.1,4.114,4.172,6.246,6.154a.884.884,0,0,1,.044,1.248.885.885,0,0,1-.644.281Zm213.909-8.641a.882.882,0,0,1-.882-.882.881.881,0,0,1,.231-.6c1.958-2.149,3.882-4.385,5.718-6.647a.882.882,0,0,1,1.24-.129.882.882,0,0,1,.129,1.24c-1.857,2.289-3.8,4.552-5.783,6.725a.887.887,0,0,1-.658.29Zm-226.1-4.1a.88.88,0,0,1-.672-.31c-1.907-2.242-3.774-4.572-5.547-6.925a.881.881,0,0,1,.2-1.231.883.883,0,0,1,1.21.169c1.754,2.325,3.6,4.628,5.483,6.843a.882.882,0,0,1-.1,1.243.885.885,0,0,1-.572.211Zm233.69-4.9a.881.881,0,0,1-.887-.877.87.87,0,0,1,.187-.548c1.793-2.3,3.538-4.674,5.189-7.062a.882.882,0,0,1,1.215-.281.882.882,0,0,1,.281,1.215.77.77,0,0,1-.045.066c-1.669,2.416-3.435,4.82-5.248,7.145a.881.881,0,0,1-.7.347Zm-244.3-9.18a.883.883,0,0,1-.736-.394c-1.633-2.454-3.212-4.987-4.694-7.528a.882.882,0,0,1,.287-1.214.882.882,0,0,1,1.214.288l.022.037c1.465,2.512,3.026,5.016,4.639,7.441a.881.881,0,0,1-.245,1.222h0a.868.868,0,0,1-.5.152Zm254.318-5.318a.881.881,0,0,1-.881-.883.871.871,0,0,1,.129-.458c1.513-2.489,2.97-5.052,4.33-7.616a.881.881,0,0,1,1.192-.367.884.884,0,0,1,.367,1.193h0c-1.377,2.6-2.852,5.188-4.382,7.707a.882.882,0,0,1-.765.43Zm-263.2-9.914a.882.882,0,0,1-.788-.483c-1.329-2.623-2.6-5.324-3.776-8.028a.882.882,0,0,1,.418-1.175.882.882,0,0,1,1.175.419c.009.018.017.037.025.056,1.162,2.673,2.417,5.342,3.731,7.935a.884.884,0,0,1-.388,1.186.89.89,0,0,1-.4.095Zm271.447-5.648a.881.881,0,0,1-.881-.882.88.88,0,0,1,.081-.367c1.21-2.649,2.356-5.365,3.4-8.073a.882.882,0,0,1,1.141-.5.883.883,0,0,1,.5,1.141h0c-1.061,2.741-2.22,5.49-3.447,8.169A.883.883,0,0,1-319.347,1185.31Zm-278.493-10.516a.884.884,0,0,1-.828-.579c-1.013-2.763-1.958-5.594-2.81-8.415a.883.883,0,0,1,.589-1.1.883.883,0,0,1,1.1.59c.841,2.788,1.776,5.587,2.777,8.317a.883.883,0,0,1-.524,1.132.881.881,0,0,1-.3.054Zm284.86-5.917a.878.878,0,0,1-.27-.042.882.882,0,0,1-.57-1.11c.89-2.776,1.709-5.609,2.431-8.421a.883.883,0,0,1,1.09-.609.885.885,0,0,1,.62,1.048c-.732,2.846-1.561,5.713-2.461,8.521a.883.883,0,0,1-.84.613Zm-289.955-10.965a.88.88,0,0,1-.857-.677c-.684-2.861-1.293-5.782-1.81-8.685a.882.882,0,0,1,.713-1.024.883.883,0,0,1,1.024.714h0c.512,2.869,1.113,5.757,1.789,8.585a.882.882,0,0,1-.653,1.063h0A.893.893,0,0,1-602.935,1157.912Zm294.346-6.106a.865.865,0,0,1-.169-.016.882.882,0,0,1-.7-1.032v0c.557-2.856,1.038-5.767,1.428-8.649a.882.882,0,0,1,1-.743.883.883,0,0,1,.746.979c-.4,2.917-.881,5.861-1.445,8.751a.883.883,0,0,1-.861.713Zm-297.441-11.252a.88.88,0,0,1-.875-.778c-.348-2.927-.613-5.9-.789-8.835a.882.882,0,0,1,.827-.934.884.884,0,0,1,.934.828h0c.175,2.9.438,5.841.781,8.733a.882.882,0,0,1-.77.98h0A.948.948,0,0,1-606.03,1140.554Zm299.805-6.216h-.068a.881.881,0,0,1-.812-.947h0c.221-2.9.358-5.845.409-8.758a.882.882,0,0,1,.9-.867.884.884,0,0,1,.867.9h0c-.052,2.947-.191,5.928-.415,8.86A.883.883,0,0,1-306.225,1134.338Zm-300.861-11.384a.882.882,0,0,1-.882-.882v-.266c0-2.857.082-5.748.243-8.6a.881.881,0,0,1,.931-.831.883.883,0,0,1,.831.931h0c-.16,2.818-.241,5.676-.241,8.5v.271A.882.882,0,0,1-607.086,1122.954Zm301.17-6.245a.882.882,0,0,1-.881-.847c-.118-2.909-.325-5.852-.611-8.746a.88.88,0,0,1,.77-.981.882.882,0,0,1,.981.77l0,.037c.29,2.927.5,5.9.619,8.849a.884.884,0,0,1-.845.917Zm-300.173-11.358a.821.821,0,0,1-.1-.006.881.881,0,0,1-.775-.977c.339-2.929.767-5.881,1.275-8.778a.882.882,0,0,1,1.021-.717.884.884,0,0,1,.717,1.022c-.5,2.863-.925,5.781-1.26,8.675A.883.883,0,0,1-606.089,1105.351Zm298.433-6.188a.88.88,0,0,1-.87-.745c-.457-2.878-1-5.777-1.624-8.617a.882.882,0,0,1,.666-1.055.882.882,0,0,1,1.054.666l0,.011c.629,2.873,1.182,5.807,1.643,8.718a.882.882,0,0,1-.732,1.009h0A.824.824,0,0,1-307.656,1099.163Zm-295.391-11.175a.836.836,0,0,1-.2-.024.882.882,0,0,1-.655-1.061c.677-2.864,1.449-5.746,2.294-8.566a.881.881,0,0,1,1.1-.592.883.883,0,0,1,.592,1.1c-.835,2.787-1.6,5.635-2.267,8.466A.884.884,0,0,1-603.047,1087.988Zm291.621-6.05a.884.884,0,0,1-.849-.644c-.787-2.806-1.667-5.622-2.615-8.37a.883.883,0,0,1,.516-1.136.882.882,0,0,1,1.135.517l.016.044c.959,2.781,1.85,5.63,2.646,8.468a.883.883,0,0,1-.61,1.088h0a.87.87,0,0,1-.237.033ZM-597.987,1071.1a.884.884,0,0,1-.883-.884.856.856,0,0,1,.054-.3c1.011-2.769,2.116-5.54,3.286-8.237a.88.88,0,0,1,1.153-.474.882.882,0,0,1,.475,1.153l-.009.021c-1.156,2.664-2.248,5.4-3.247,8.139A.883.883,0,0,1-597.987,1071.1Zm280.813-5.836a.881.881,0,0,1-.816-.546c-1.11-2.694-2.313-5.387-3.576-8.006a.882.882,0,0,1,.411-1.178.882.882,0,0,1,1.178.411c1.278,2.65,2.5,5.376,3.619,8.1a.882.882,0,0,1-.48,1.151.884.884,0,0,1-.336.067Zm-273.8-10.331a.881.881,0,0,1-.883-.88.883.883,0,0,1,.1-.4c1.328-2.626,2.751-5.247,4.231-7.791a.881.881,0,0,1,1.2-.352.882.882,0,0,1,.352,1.2l-.024.042c-1.462,2.513-2.869,5.1-4.18,7.7A.884.884,0,0,1-590.978,1054.938Zm266.145-5.549a.883.883,0,0,1-.772-.453c-1.418-2.545-2.93-5.078-4.492-7.53a.881.881,0,0,1,.24-1.224.882.882,0,0,1,1.224.24l.023.036c1.582,2.481,3.111,5.045,4.546,7.62a.882.882,0,0,1-.339,1.2.89.89,0,0,1-.43.112Zm-257.289-9.682a.881.881,0,0,1-.881-.883.876.876,0,0,1,.147-.486c1.624-2.452,3.343-4.89,5.108-7.243a.881.881,0,0,1,1.23-.2.882.882,0,0,1,.2,1.231l-.022.03c-1.745,2.327-3.444,4.736-5.049,7.159a.885.885,0,0,1-.735.392Zm247.812-5.188a.879.879,0,0,1-.716-.365c-1.7-2.354-3.5-4.693-5.347-6.949a.882.882,0,0,1,.124-1.242.884.884,0,0,1,1.242.125c1.867,2.283,3.687,4.648,5.411,7.032a.882.882,0,0,1-.2,1.231h0a.873.873,0,0,1-.514.165Zm-237.237-8.918a.881.881,0,0,1-.882-.882.879.879,0,0,1,.208-.569c1.9-2.256,3.892-4.479,5.913-6.612a.882.882,0,0,1,1.247-.033.883.883,0,0,1,.033,1.247c-2,2.107-3.963,4.307-5.844,6.536A.882.882,0,0,1-571.547,1025.6Zm226.08-4.735a.878.878,0,0,1-.649-.285c-1.972-2.141-4.032-4.252-6.126-6.274a.883.883,0,0,1-.022-1.248.883.883,0,0,1,1.248-.021c2.118,2.047,4.2,4.182,6.2,6.349a.882.882,0,0,1-.053,1.246.876.876,0,0,1-.6.233Zm-213.951-8.06a.883.883,0,0,1-.877-.889.88.88,0,0,1,.277-.636c2.149-2.017,4.385-4,6.644-5.88a.882.882,0,0,1,1.242.112.883.883,0,0,1-.112,1.243c-2.234,1.862-4.442,3.817-6.566,5.812a.879.879,0,0,1-.611.237Zm201.271-4.193a.885.885,0,0,1-.575-.213c-1.092-.939-2.222-1.884-3.359-2.807s-2.3-1.836-3.45-2.718a.881.881,0,0,1-.117-1.242.882.882,0,0,1,1.188-.158c1.168.893,2.342,1.818,3.491,2.75s2.294,1.888,3.4,2.838a.882.882,0,0,1,.092,1.245.881.881,0,0,1-.668.307Zm-187.729-7.1a.882.882,0,0,1-.883-.882.882.882,0,0,1,.358-.709c2.368-1.749,4.82-3.451,7.289-5.058a.881.881,0,0,1,1.213.287.881.881,0,0,1-.251,1.191c-2.44,1.589-4.863,3.271-7.2,5a.883.883,0,0,1-.529.169Zm173.728-3.6a.877.877,0,0,1-.494-.151c-2.414-1.634-4.9-3.214-7.4-4.7a.883.883,0,0,1-.349-1.2.882.882,0,0,1,1.2-.348c.017.009.034.019.051.03,2.523,1.5,5.041,3.1,7.483,4.751a.882.882,0,0,1,.237,1.224.882.882,0,0,1-.732.389ZM-531.1,991.9a.882.882,0,0,1-.883-.881.881.881,0,0,1,.445-.767c2.557-1.459,5.193-2.86,7.833-4.166a.882.882,0,0,1,1.182.4.883.883,0,0,1-.4,1.182c-2.609,1.291-5.214,2.676-7.743,4.117a.882.882,0,0,1-.437.11Zm143.806-2.987a.869.869,0,0,1-.4-.1c-2.587-1.34-5.244-2.618-7.9-3.8a.882.882,0,0,1-.423-1.175.884.884,0,0,1,1.141-.438c2.684,1.2,5.373,2.488,7.99,3.843a.882.882,0,0,1,.377,1.189.884.884,0,0,1-.783.476Zm-128-4.829a.884.884,0,0,1-.893-.874.884.884,0,0,1,.549-.826c2.713-1.149,5.494-2.231,8.267-3.217a.883.883,0,0,1,1.127.536.883.883,0,0,1-.536,1.127c-2.741.975-5.49,2.044-8.17,3.179a.887.887,0,0,1-.348.07Zm111.9-2.338a.886.886,0,0,1-.31-.056c-2.72-1.024-5.511-1.981-8.29-2.844a.882.882,0,0,1-.581-1.1.881.881,0,0,1,1.1-.581c2.813.873,5.635,1.841,8.388,2.877a.882.882,0,0,1,.513,1.138.883.883,0,0,1-.824.571Zm-95.291-3.574a.882.882,0,0,1-.882-.882.882.882,0,0,1,.636-.847c2.825-.823,5.715-1.573,8.587-2.231a.881.881,0,0,1,1.056.663.882.882,0,0,1-.663,1.057c-2.839.649-5.7,1.391-8.487,2.2a.871.871,0,0,1-.248.036Zm78.458-1.65a.9.9,0,0,1-.213-.026c-2.826-.7-5.708-1.32-8.568-1.849a.882.882,0,0,1-.707-1.029.882.882,0,0,1,1.029-.706h0c2.893.536,5.811,1.166,8.67,1.872a.882.882,0,0,1,.648,1.065.881.881,0,0,1-.859.674Zm-61.272-2.284a.884.884,0,0,1-.879-.888.883.883,0,0,1,.733-.865c2.906-.489,5.863-.9,8.788-1.216a.882.882,0,0,1,.972.781.882.882,0,0,1-.781.973c-2.892.315-5.814.72-8.686,1.2a1.043,1.043,0,0,1-.147.01Zm43.939-.93a1.011,1.011,0,0,1-.111-.007c-2.886-.362-5.823-.643-8.727-.835a.882.882,0,0,1-.823-.939.882.882,0,0,1,.939-.822c2.939.2,5.91.479,8.83.845a.882.882,0,0,1,.773.979.881.881,0,0,1-.881.779Zm-26.41-.98a.881.881,0,0,1-.883-.881.881.881,0,0,1,.84-.882c2.538-.128,5.108-.193,7.641-.193.4,0,.818,0,1.227.005a.881.881,0,0,1,.875.887v0a.9.9,0,0,1-.888.875c-.4,0-.833,0-1.214-.005-2.5,0-5.043.064-7.553.191Z" fill="#fff"></path><circle id="Ellipse_12" data-name="Ellipse 12" cx="23.912" cy="23.912" r="23.912" transform="translate(-74.993 1076.25)" fill="#de2f54"></circle><path id="Path_344" data-name="Path 344" d="M-57.258,1092.378l-.061,15.52a1.6,1.6,0,0,0,1.6,1.6,1.6,1.6,0,0,0,.734-.179l12.442-6.534a1.594,1.594,0,0,0,.668-2.153,1.606,1.606,0,0,0-.473-.547l-12.382-8.986a1.6,1.6,0,0,0-2.227.354A1.593,1.593,0,0,0-57.258,1092.378Z" fill="#fff"></path><path id="Path_345" data-name="Path 345" d="M-493.322,1020.736c-20.6,11.024-30.384,33.332-26.1,46.064,4.09,12.164,18.419,7.865,23.873,19.235,8.562,17.852-22.1,38.18-18.523,59.5,3.691,22.012,38.43,12.621,53.391,35.286,18.341,27.786-21.9,60.027-9.253,92.424,12.11,31.008,68.965,52.649,115.856,27.3,41.4-22.379,61.167-73.89,47.54-100.4-15.917-30.964-70.4-14.178-81.4-45.372-9.883-28.005,28.854-56.19,14.01-77.395-12.417-17.736-43.34-3.477-60.936-25.579-11.556-14.514-4.644-28.733-19.825-35.144C-465.165,1012.239-480.545,1013.9-493.322,1020.736Z" fill="#dfe1fb"></path><path id="Path_346" data-name="Path 346" d="M-339.029,1367.14a1.14,1.14,0,0,1-.261-.029,1.167,1.167,0,0,1-.878-1.4v0c14.429-63.1-133.446-307.126-134.941-309.584a1.165,1.165,0,0,1,.413-1.6,1.166,1.166,0,0,1,1.579.384c.375.616,37.875,62.373,73.1,131.191,47.384,92.586,68.286,153.188,62.126,180.125A1.166,1.166,0,0,1-339.029,1367.14Z" fill="#b1b6f6"></path><path id="Path_347" data-name="Path 347" d="M-364.519,1260.736a1.153,1.153,0,0,1-.293-.037l-70.3-18.221a1.166,1.166,0,0,1-.81-1.437,1.166,1.166,0,0,1,1.395-.82l69.341,17.974,22.9-51.455a1.166,1.166,0,0,1,1.526-.625,1.165,1.165,0,0,1,.624,1.526l-.02.047-23.3,52.357A1.165,1.165,0,0,1-364.519,1260.736Z" fill="#ebf7ff"></path><path id="Path_348" data-name="Path 348" d="M-428.482,1135.832h-.1l-50.722-4.276a1.166,1.166,0,0,1-1.062-1.262,1.166,1.166,0,0,1,1.262-1.061l49.944,4.21,23.489-45.645a1.165,1.165,0,0,1,1.569-.5,1.167,1.167,0,0,1,.5,1.57h0l-23.845,46.339A1.165,1.165,0,0,1-428.482,1135.832Z" fill="#b1b6f6"></path><path id="Path_349" data-name="Path 349" d="M-616.675,1191.045c9.5-13.105,29.4-16.655,39.373-9.674,10.683,7.479,3.7,22.645,12.981,28.872,15.027,10.079,44.51-22.177,59.607-12.471,10.462,6.726.751,25.078,12.5,36.868,14.05,14.1,36.878-3.178,57.074,7.442,24.292,12.773,39.944,63.364,15.56,97.248-19.824,27.547-61.352,37.436-80.321,23.266-20.914-15.625-4.761-53.289-25.48-65.74-20.794-12.5-52.276,16.3-64.458,4.154-10.508-10.478,10-34.81-3.381-55.048-8.243-12.467-20.663-10.25-26.629-24.341C-623.68,1212.575-623.376,1200.284-616.675,1191.045Z" fill="#b1b6f6"></path><path id="Path_350" data-name="Path 350" d="M-389.673,1376.848a.942.942,0,0,1-.8-.444c-27.637-44.358-71.876-78.109-104.123-98.611-34.957-22.226-63.72-34.092-64.006-34.209a.942.942,0,0,1-.516-1.23.943.943,0,0,1,1.23-.516c.288.118,29.207,12.049,64.3,34.365,32.411,20.608,76.886,54.546,104.711,99.2a.942.942,0,0,1-.3,1.3.945.945,0,0,1-.5.142Z" fill="#ced0f6"></path><path id="Path_351" data-name="Path 351" d="M-405.648,1320.922h-.064a1.323,1.323,0,0,1-1.26-1.383c2.1-44.617-108.179-155.006-109.293-156.116a1.322,1.322,0,0,1,0-1.871,1.322,1.322,0,0,1,1.871,0c.28.279,28.32,28.279,55.734,61.509,36.963,44.8,55.243,77.306,54.335,96.6A1.324,1.324,0,0,1-405.648,1320.922Z" fill="#de2f54"></path><path id="Path_352" data-name="Path 352" d="M-515.346,1164.3h-.1c-.443-.035-44.259-3.929-44.119-37.134a1.318,1.318,0,0,1,.419-.961,1.3,1.3,0,0,1,.985-.355c.372.023,37.309,2.689,44.118,36.872a1.325,1.325,0,0,1-1.041,1.557,1.4,1.4,0,0,1-.259.025Zm-41.552-35.66c1.025,25.82,32,31.723,39.862,32.805-6.456-26.888-33.336-31.965-39.862-32.805Z" fill="#de2f54"></path><path id="Path_353" data-name="Path 353" d="M-503.374,1222.472c-8.829,0-17.787-3.057-24.568-12.4a1.324,1.324,0,0,1,.3-1.849h0c.314-.227,31.7-22.419,57.433,1.175a1.325,1.325,0,0,1,.08,1.871,1.329,1.329,0,0,1-.227.2C-470.605,1211.637-486.758,1222.472-503.374,1222.472Zm-21.591-12.85c16.14,20.339,44.892,4.7,51.659.58C-494.52,1192.23-519.416,1206.114-524.965,1209.622Z" fill="#de2f54"></path><path id="Path_354" data-name="Path 354" d="M-471.111,1211.7h-.019a1.32,1.32,0,0,1-1.048-.541c-.262-.358-25.958-36.061-.738-57.661a1.321,1.321,0,0,1,1.864.14c.017.019.033.039.049.06.226.3,22.354,29.992.937,57.489A1.324,1.324,0,0,1-471.111,1211.7Zm-1.179-55.213c-18.87,17.654-3.087,44.955,1.232,51.61,16.131-22.463,2.4-46.122-1.23-51.61Z" fill="#de2f54"></path><path id="Path_355" data-name="Path 355" d="M-452.66,1276c-11.565,0-23.906-3.694-30.613-17.1a1.323,1.323,0,0,1,.592-1.775l.04-.019c.36-.166,36.209-16.157,57.722,11.3a1.325,1.325,0,0,1-.227,1.859,1.355,1.355,0,0,1-.289.172C-425.669,1270.535-438.589,1276-452.66,1276Zm-27.578-17.024c12.654,22.682,44.5,12.5,52.106,9.673C-446.151,1247.5-473.933,1256.546-480.238,1258.978Z" fill="#de2f54"></path><path id="Path_356" data-name="Path 356" d="M-425.96,1270.542a1.326,1.326,0,0,1-1.21-.788c-.179-.406-17.627-40.751,10.73-57.909a1.323,1.323,0,0,1,1.817.449,1.532,1.532,0,0,1,.073.138c.153.339,15.063,34.173-10.513,57.759A1.327,1.327,0,0,1-425.96,1270.542Zm9.57-55.592c-21.387,14.336-11.915,44.341-9.068,51.951,19.5-19.494,11.44-45.611,9.068-51.95Z" fill="#de2f54"></path><path id="Path_357" data-name="Path 357" d="M-157.134,1008.449s-145.457,54-160.132,140.64S-302.9,1287.7-302.9,1287.7s86.1-25.95,123.787-104.984,29.657-108.652,29.657-108.652l-23.122,4.4,24.344-35.772S-146.241,1027.944-157.134,1008.449Z" fill="#ced0f6"></path><path id="Path_358" data-name="Path 358" d="M-302.895,1288.652a1.02,1.02,0,0,1-.146-.011.941.941,0,0,1-.785-1.076h0c10.722-68.54,119.98-238.858,121.329-240.961a.942.942,0,0,1,1.3-.276.943.943,0,0,1,.283,1.295c-1.349,2.1-110.393,172.084-121.054,240.234A.943.943,0,0,1-302.895,1288.652Z" fill="#b1b6f6"></path><path id="Path_359" data-name="Path 359" d="M-186.124,1123.434a1.027,1.027,0,0,0-1.428-.262,1.03,1.03,0,0,0-.089.07l-.721.608c-38.467,32.383-53.107,35.975-58.617,33.286a.944.944,0,0,0-1.261.434.943.943,0,0,0,.434,1.261,9.465,9.465,0,0,0,4.188.861c13.086,0,36.828-17.4,57.338-34.834a1.055,1.055,0,0,0,.166-1.405Z" fill="#b1b6f6"></path><path id="Path_360" data-name="Path 360" d="M-273.469,1204a.939.939,0,0,1-.605-.22c-1.06-.888-25.971-22.675-24.3-101.6a.943.943,0,0,1,.943-.923h.019a.943.943,0,0,1,.923.962c-1.654,78.023,23.371,99.9,23.625,100.114a.943.943,0,0,1,.119,1.327.941.941,0,0,1-.725.338Z" fill="#b1b6f6"></path><path id="Path_361" data-name="Path 361" d="M-227.745,1130.4c-14.751-8.462-16.853-32.289-16.265-49.508a.743.743,0,0,0-.726-.76.683.683,0,0,0-.168.015h-.016a.721.721,0,0,0-.6.714q-.03,3.118.048,6.735c.536,23.4,6.183,38.355,16.785,44.437a.943.943,0,0,0,1.286-.349.943.943,0,0,0-.349-1.286h0Z" fill="#b1b6f6"></path><path id="Path_362" data-name="Path 362" d="M-263.558,1232.092a32.148,32.148,0,0,1-15.2-3.324.943.943,0,0,1-.433-1.262.944.944,0,0,1,1.262-.432l.053.028c25.842,13.684,82.707-22.785,83.278-23.155a.943.943,0,0,1,1.307.265.944.944,0,0,1-.265,1.307l-.017.011a241.675,241.675,0,0,1-32.269,16.964C-240.837,1228.887-253.45,1232.092-263.558,1232.092Z" fill="#b1b6f6"></path><path id="Path_363" data-name="Path 363" d="M-256.146,1249.149a90.562,90.562,0,0,1-32.117-6.21.943.943,0,0,1-.534-1.222.943.943,0,0,1,1.2-.542c40.675,15.365,65.592-3.1,65.84-3.287a.943.943,0,0,1,1.321.179.943.943,0,0,1-.179,1.321C-220.794,1239.52-233.78,1249.149-256.146,1249.149Z" fill="#fff"></path><path id="Path_364" data-name="Path 364" d="M-195.815,1306.023a69.1,69.1,0,0,1-46.158-17.985,63.532,63.532,0,0,1-20.048-48.194c.344-13.387,5.1-25.2,12.737-31.6,8.841-7.419,20.114-6.819,31.009-6.239,11.165.594,21.716,1.155,28.244-7.227,5-6.415,4.684-14.014,4.383-21.363-.33-8.05-.64-15.653,6.769-19.622,6.449-3.456,14.2-1.663,21.7.073s14.6,3.379,18.915-.835c2.492-2.43,2.627-5.368,2.77-8.479.162-3.521.346-7.512,4.3-10.522,7.518-5.714,24.089-4.389,35.852,6.649h0c7.305,6.855,11.65,16.369,11.067,24.238-.5,6.773-4.488,9.314-8.708,12-3.192,2.034-6.492,4.138-9.2,8.336-4.993,7.743-3.341,15.683-1.742,23.36,1.508,7.245,2.932,14.089-1.413,19.995-5.584,7.589-15.149,6.262-25.274,4.858-9.321-1.291-18.961-2.629-26.07,2.946-8.057,6.318-6.8,16.92-5.459,28.145,1.366,11.48,2.779,23.351-5.531,31.917C-173.71,1302.7-184.091,1306.023-195.815,1306.023Zm-31.25-101.687c-7.481,0-14.706,1.052-20.521,5.93-7.058,5.924-11.468,17.006-11.792,29.647a60.889,60.889,0,0,0,19.2,46.189c22.324,20.773,57.48,22.051,70.6,8.527,7.432-7.661,6.1-18.9,4.8-29.761-1.364-11.456-2.773-23.3,6.455-30.541,7.992-6.268,18.656-4.789,28.066-3.484,9.727,1.349,18.13,2.514,22.779-3.806,3.645-4.954,2.4-10.947.953-17.887-1.627-7.817-3.47-16.678,2.109-25.333,3.02-4.684,6.729-7.048,10-9.133,4.115-2.624,7.088-4.518,7.491-9.968.518-6.993-3.6-15.879-10.239-22.113h0c-10.49-9.844-25.781-11.533-32.439-6.47-2.975,2.26-3.108,5.169-3.263,8.536-.153,3.325-.326,7.092-3.564,10.251-5.354,5.223-13.491,3.34-21.36,1.518-7.02-1.624-14.276-3.3-19.852-.318-5.947,3.186-5.693,9.362-5.374,17.181.306,7.461.652,15.917-4.939,23.1-7.377,9.473-19.123,8.849-30.473,8.245C-221.293,1204.49-224.2,1204.336-227.065,1204.336Z" fill="#de2f54"></path><path id="Path_365" data-name="Path 365" d="M-278.617,1311.506a1.322,1.322,0,0,1-1.319-1.327,1.323,1.323,0,0,1,1.187-1.312c42.067-4.261,162.669-147.372,163.883-148.817a1.322,1.322,0,0,1,1.858-.22,1.324,1.324,0,0,1,.22,1.858c-.017.021-.034.042-.052.062-.3.363-30.86,36.688-66.288,73.077-47.74,49.034-81.167,74.829-99.354,76.671A1.221,1.221,0,0,1-278.617,1311.506Z" fill="#de2f54"></path><path id="Path_366" data-name="Path 366" d="M-180.3,1276.783c-.042,0-.084,0-.125-.006l-37.472-3.5a1.321,1.321,0,0,1-1.2-1.222l-3.436-47.565a1.322,1.322,0,0,1,1.237-1.4,1.322,1.322,0,0,1,1.4,1.212l3.356,46.447,36.356,3.392a1.323,1.323,0,0,1,1.191,1.443,1.323,1.323,0,0,1-1.313,1.2Z" fill="#de2f54"></path><path id="Path_367" data-name="Path 367" d="M-119.663,1212.342a1.477,1.477,0,0,1-.2-.014l-33.842-5.1a1.323,1.323,0,0,1-1.087-.992l-8-32.456a1.323,1.323,0,0,1,.948-1.613,1.324,1.324,0,0,1,1.613.949l.008.031,7.788,31.6,32.966,4.965a1.323,1.323,0,0,1,1.109,1.507,1.322,1.322,0,0,1-1.309,1.124Z" fill="#de2f54"></path><circle id="Ellipse_13" data-name="Ellipse 13" cx="23.912" cy="23.912" r="23.912" transform="translate(-622.352 1048.359)" fill="#303886"></circle><path id="Path_368" data-name="Path 368" d="M-597.639,1082.575h0a1.524,1.524,0,0,1-1.2-.587l-9.729-12.5a1.521,1.521,0,0,1,.247-2.137,1.521,1.521,0,0,1,2.137.247l.016.021,8.53,10.956,6.641-8.506a1.521,1.521,0,0,1,2.136-.264,1.522,1.522,0,0,1,.264,2.136h0l-7.841,10.044A1.522,1.522,0,0,1-597.639,1082.575Z" fill="#fff"></path><path id="Path_369" data-name="Path 369" d="M-529.184,926.182h-21.3a1.323,1.323,0,0,1-1.313-1.159c-.009-.069-.881-6.917-2.533-10.221-.29-.58-.762-1.424-1.361-2.491-2.984-5.33-8.54-15.25-8.54-22.946a23.281,23.281,0,0,1,5.192-14.83c4.293-5.1,10.932-7.791,19.2-7.791s14.91,2.694,19.2,7.791a23.3,23.3,0,0,1,5.191,14.83c0,7.7-5.555,17.615-8.539,22.944-.6,1.069-1.071,1.912-1.362,2.494-1.651,3.3-2.524,10.153-2.533,10.221A1.325,1.325,0,0,1-529.184,926.182Zm-20.148-2.646h19c.338-2.216,1.2-7.062,2.628-9.917.318-.637.8-1.5,1.419-2.6,2.867-5.118,8.2-14.645,8.2-21.65,0-9.215-5.7-19.974-21.748-19.974s-21.749,10.759-21.749,19.974c0,7.006,5.337,16.534,8.2,21.653.615,1.1,1.1,1.965,1.419,2.6,1.431,2.86,2.293,7.7,2.631,9.917Z" fill="#303886"></path><path id="Path_370" data-name="Path 370" d="M-529.638,931.655h-20.391a1.641,1.641,0,0,1-1.636-1.636h0a1.64,1.64,0,0,1,1.636-1.636h20.391A1.642,1.642,0,0,1-528,930.019h0A1.642,1.642,0,0,1-529.638,931.655Z" fill="#303886"></path><path id="Path_371" data-name="Path 371" d="M-529.638,938.448h-20.391a1.641,1.641,0,0,1-1.636-1.637h0a1.64,1.64,0,0,1,1.636-1.636h20.391A1.642,1.642,0,0,1-528,936.811h0A1.643,1.643,0,0,1-529.638,938.448Z" fill="#303886"></path><path id="Path_372" data-name="Path 372" d="M-548.509,941.967s2.661,5.892,8.873,5.892,7.986-5.892,7.986-5.892Z" fill="#303886"></path><rect id="Rectangle_182" data-name="Rectangle 182" width="2.501" height="20.409" transform="translate(-540.886 832.426)" fill="#de2f54"></rect><rect id="Rectangle_183" data-name="Rectangle 183" width="2.501" height="20.412" transform="matrix(0.766, -0.643, 0.643, 0.766, -579.094, 846.543)" fill="#de2f54"></rect><rect id="Rectangle_184" data-name="Rectangle 184" width="2.501" height="20.41" transform="translate(-598.496 882.286) rotate(-79.999)" fill="#de2f54"></rect><rect id="Rectangle_185" data-name="Rectangle 185" width="20.41" height="2.501" transform="matrix(0.985, -0.174, 0.174, 0.985, -502.043, 884.241)" fill="#de2f54"></rect><rect id="Rectangle_186" data-name="Rectangle 186" width="20.412" height="2.501" transform="matrix(0.643, -0.766, 0.766, 0.643, -515.419, 861.141)" fill="#de2f54"></rect><path id="Path_373" data-name="Path 373" d="M-541.52,925.227l-2.628-.318a110.9,110.9,0,0,0,.428-21.775,12.228,12.228,0,0,1-5.59-3.062,9.63,9.63,0,0,1-3.1-6.623c0-2.327,1.316-3.891,3.275-3.891a5.709,5.709,0,0,1,4.4,2.069c1.757,1.983,2.8,5.368,3.38,9.247a15.344,15.344,0,0,0,3.38-.032c.535-4.255,1.516-7.907,3.215-9.768a4.326,4.326,0,0,1,3.233-1.516c2.411,0,4.031,1.775,4.031,4.417a9.016,9.016,0,0,1-3.1,6.392,12.032,12.032,0,0,1-4.962,2.686,141.254,141.254,0,0,0,.251,21.9l-2.635.24a143.111,143.111,0,0,1-.315-21.655,18.267,18.267,0,0,1-2.777.026A116.727,116.727,0,0,1-541.52,925.227Zm-7.617-33.023c-.547,0-.629.78-.629,1.245a7.088,7.088,0,0,0,2.3,4.725,9.375,9.375,0,0,0,3.35,2.071c-.519-2.98-1.344-5.446-2.6-6.864a3.09,3.09,0,0,0-2.422-1.177Zm17.611,0a1.649,1.649,0,0,0-1.279.654c-1.19,1.3-1.954,3.982-2.422,7.3a9.048,9.048,0,0,0,2.849-1.744,6.38,6.38,0,0,0,2.236-4.441c0-.806-.24-1.769-1.385-1.769Z" fill="#303886"></path><path id="Path_374" data-name="Path 374" d="M-113.791,997.1a7.834,7.834,0,0,1-7.463-5.266l-1.478-4.158a4.071,4.071,0,0,0-5.2-2.47,3.869,3.869,0,0,0-.383.159l-3.986,1.894a7.919,7.919,0,0,1-10.554-3.751,7.917,7.917,0,0,1,0-6.8l1.9-3.985a4.07,4.07,0,0,0-1.932-5.422,4.077,4.077,0,0,0-.381-.158l-4.157-1.478a7.922,7.922,0,0,1-4.811-10.117,7.92,7.92,0,0,1,4.811-4.81l4.153-1.477a4.072,4.072,0,0,0,2.469-5.2,4.024,4.024,0,0,0-.156-.379l-1.895-3.986a7.92,7.92,0,0,1,3.75-10.554,7.919,7.919,0,0,1,6.8,0l3.986,1.894a4.067,4.067,0,0,0,5.421-1.928,4.028,4.028,0,0,0,.16-.384l1.478-4.158a7.92,7.92,0,0,1,10.117-4.809,7.928,7.928,0,0,1,4.809,4.809l1.479,4.158a4.069,4.069,0,0,0,5.2,2.469,4.093,4.093,0,0,0,.382-.158l3.986-1.894a7.92,7.92,0,0,1,10.553,3.752,7.921,7.921,0,0,1,0,6.8l-1.895,3.986a4.073,4.073,0,0,0,1.935,5.425c.123.058.249.11.377.156l4.158,1.478h0a7.921,7.921,0,0,1,4.807,10.119,7.92,7.92,0,0,1-4.807,4.808l-4.159,1.478a4.071,4.071,0,0,0-2.467,5.2,3.746,3.746,0,0,0,.156.377l1.895,3.985a7.922,7.922,0,0,1-3.76,10.552,7.919,7.919,0,0,1-6.79,0l-3.985-1.894a4.069,4.069,0,0,0-5.422,1.927,3.785,3.785,0,0,0-.159.384l-1.479,4.158A7.836,7.836,0,0,1-113.791,997.1Zm-12.774-14.775a6.715,6.715,0,0,1,6.327,4.465l1.479,4.158a5.274,5.274,0,0,0,6.738,3.2,5.275,5.275,0,0,0,3.2-3.2l1.478-4.158a6.715,6.715,0,0,1,8.577-4.076,6.7,6.7,0,0,1,.633.262l3.986,1.894a5.275,5.275,0,0,0,7.028-2.5,5.276,5.276,0,0,0,0-4.526l-1.9-3.986a6.717,6.717,0,0,1,3.183-8.949,6.827,6.827,0,0,1,.632-.261l4.158-1.478a5.274,5.274,0,0,0,3.2-6.736,5.272,5.272,0,0,0-3.2-3.2h0l-4.157-1.478a6.717,6.717,0,0,1-4.077-8.58,6.53,6.53,0,0,1,.261-.63l1.9-3.986a5.274,5.274,0,0,0-2.5-7.028,5.273,5.273,0,0,0-4.528,0l-3.987,1.895a6.715,6.715,0,0,1-8.948-3.182,6.584,6.584,0,0,1-.262-.633l-1.478-4.158a5.275,5.275,0,0,0-6.736-3.2,5.277,5.277,0,0,0-3.2,3.2l-1.479,4.158a6.714,6.714,0,0,1-8.575,4.077q-.324-.116-.635-.263l-3.985-1.894a5.275,5.275,0,0,0-7.029,2.5,5.273,5.273,0,0,0,0,4.528l1.9,3.986a6.716,6.716,0,0,1-3.182,8.948c-.206.1-.418.185-.633.262l-4.158,1.478a5.276,5.276,0,0,0-3.2,6.738,5.278,5.278,0,0,0,3.2,3.2l4.158,1.478a6.717,6.717,0,0,1,4.076,8.58q-.115.323-.261.63l-1.9,3.986a5.274,5.274,0,0,0,2.5,7.028,5.273,5.273,0,0,0,4.528,0l3.985-1.894A6.7,6.7,0,0,1-126.565,982.328Zm12.774-6.684A17.444,17.444,0,0,1-131.235,958.2a17.444,17.444,0,0,1,17.444-17.444A17.444,17.444,0,0,1-96.347,958.2,17.465,17.465,0,0,1-113.791,975.644Zm0-32.241a14.8,14.8,0,0,0-14.8,14.8,14.8,14.8,0,0,0,14.8,14.8,14.8,14.8,0,0,0,14.8-14.8h0a14.815,14.815,0,0,0-14.8-14.8Z" fill="#303886"></path><path id="Path_375" data-name="Path 375" d="M-210.345,916.922a5.474,5.474,0,0,1-5.214-3.679l-.961-2.7a2.25,2.25,0,0,0-2.872-1.368,2.048,2.048,0,0,0-.216.09l-2.587,1.23a5.535,5.535,0,0,1-7.376-2.622,5.534,5.534,0,0,1,0-4.753l1.231-2.587a2.251,2.251,0,0,0-1.067-3,2.259,2.259,0,0,0-.21-.087l-2.7-.961a5.535,5.535,0,0,1-3.362-7.068,5.534,5.534,0,0,1,3.362-3.361l2.7-.96a2.25,2.25,0,0,0,1.364-2.876c-.025-.072-.055-.142-.087-.211l-1.231-2.588a5.534,5.534,0,0,1,2.622-7.375,5.536,5.536,0,0,1,4.754,0l2.587,1.231a2.251,2.251,0,0,0,3-1.065c.033-.07.063-.141.089-.213l.961-2.7a5.532,5.532,0,0,1,7.065-3.362,5.533,5.533,0,0,1,3.363,3.362l.961,2.7a2.25,2.25,0,0,0,2.875,1.366c.072-.026.143-.055.213-.088l2.588-1.231a5.534,5.534,0,0,1,7.374,2.621,5.536,5.536,0,0,1,0,4.754l-1.23,2.588a2.252,2.252,0,0,0,1.068,3,2.02,2.02,0,0,0,.21.087l2.7.96a5.534,5.534,0,0,1,3.361,7.068,5.535,5.535,0,0,1-3.361,3.361l-2.7.961a2.251,2.251,0,0,0-1.359,2.88,2.052,2.052,0,0,0,.086.207l1.23,2.587a5.535,5.535,0,0,1-2.622,7.374,5.532,5.532,0,0,1-4.752,0l-2.588-1.229a2.252,2.252,0,0,0-3,1.065c-.033.07-.063.141-.089.213l-.958,2.7A5.475,5.475,0,0,1-210.345,916.922Zm-8.3-10.376a4.747,4.747,0,0,1,4.476,3.159l.961,2.7a3.034,3.034,0,0,0,3.877,1.84,3.032,3.032,0,0,0,1.841-1.84l.958-2.7a4.753,4.753,0,0,1,6.073-2.884,4.782,4.782,0,0,1,.445.184l2.588,1.23a3.033,3.033,0,0,0,4.042-1.436,3.034,3.034,0,0,0,0-2.606l-1.231-2.587a4.753,4.753,0,0,1,2.254-6.333,4.69,4.69,0,0,1,.446-.184l2.7-.961a3.033,3.033,0,0,0,1.839-3.876,3.034,3.034,0,0,0-1.839-1.84l-2.7-.96a4.753,4.753,0,0,1-2.885-6.071,4.707,4.707,0,0,1,.185-.446l1.231-2.588a3.033,3.033,0,0,0-1.436-4.042,3.035,3.035,0,0,0-2.606,0l-2.588,1.23a4.751,4.751,0,0,1-6.331-2.251,4.518,4.518,0,0,1-.186-.449l-.96-2.7a3.035,3.035,0,0,0-3.876-1.842,3.032,3.032,0,0,0-1.841,1.842l-.961,2.7a4.75,4.75,0,0,1-6.066,2.886,4.532,4.532,0,0,1-.45-.186l-2.587-1.23a3.034,3.034,0,0,0-4.043,1.438,3.03,3.03,0,0,0,0,2.6l1.23,2.588a4.753,4.753,0,0,1-2.253,6.332q-.219.1-.447.185l-2.7.96a3.032,3.032,0,0,0-1.843,3.873,3.032,3.032,0,0,0,1.843,1.843l2.7.961a4.751,4.751,0,0,1,2.886,6.067q-.082.23-.186.45l-1.23,2.587a3.034,3.034,0,0,0,1.436,4.043,3.037,3.037,0,0,0,2.607,0l2.587-1.231a4.745,4.745,0,0,1,2.046-.458Zm8.295-3.559a11.718,11.718,0,0,1-11.718-11.718,11.718,11.718,0,0,1,11.718-11.718,11.718,11.718,0,0,1,11.718,11.718,11.73,11.73,0,0,1-11.713,11.719Zm0-20.935a9.216,9.216,0,0,0-9.216,9.218,9.217,9.217,0,0,0,9.218,9.216,9.217,9.217,0,0,0,9.216-9.217,9.229,9.229,0,0,0-9.213-9.216Z" fill="#de2f54"></path><rect id="Rectangle_187" data-name="Rectangle 187" width="13.39" height="13.39" transform="translate(-232.095 997.612) rotate(-52.19)" fill="#575a74"></rect><rect id="Rectangle_188" data-name="Rectangle 188" width="13.39" height="13.39" transform="translate(-60.471 1356.703) rotate(-52.19)" fill="#303886"></rect><rect id="Rectangle_189" data-name="Rectangle 189" width="13.391" height="13.391" transform="matrix(0.613, -0.79, 0.79, 0.613, -607.979, 1356.7)" fill="#de2f54"></rect><rect id="Rectangle_190" data-name="Rectangle 190" width="13.391" height="13.391" transform="matrix(0.613, -0.79, 0.79, 0.613, -369.64, 865.942)" fill="#de2f54"></rect><path id="Path_376" data-name="Path 376" d="M-347.172,1049.2s-11.186,26.98-20.742,26.98,18.087,23.985,35.341,23.985,36.061-20,37.654-23.985-24.646-3.886-24.913-22.2S-347.172,1049.2-347.172,1049.2Z" fill="#ddbcaf"></path><path id="Path_377" data-name="Path 377" d="M-372.426,989.766s7.687,75.908,39.009,77.5,53.366-89.054,53.366-90.725-63.706-18.659-63.706-18.659Z" fill="#f1ccbb"></path><path id="Path_378" data-name="Path 378" d="M-283.236,971.156s-.155,21.028-7.643,38.589c0,0,21.446-5.674,15.606-51.861Z" fill="#575a74"></path><path id="Path_379" data-name="Path 379" d="M-370.513,952.655l33.656,18.5s-11.148,13.862-35.57,18.611l1.913,16.645s-14.123-14.564-13.062-26.238S-370.513,952.655-370.513,952.655Z" fill="#575a74"></path><rect id="Rectangle_191" data-name="Rectangle 191" width="216.525" height="32.384" transform="translate(-442.11 1323.135)" fill="#303886"></rect><path id="Path_380" data-name="Path 380" d="M-364.545,1003.256a3.132,3.132,0,0,0-2.175-2.233c-3.718-1.059-12.228-2.443-13.94,6.358-1.879,9.665,9.469,16.369,17.478,16.2a3.147,3.147,0,0,0,3.023-3.266,3.176,3.176,0,0,0-.106-.7Z" fill="#f1ccbb"></path><path id="Path_381" data-name="Path 381" d="M-376.958,964.784s29.482,22.83,69.3,19.113,49.9-38.224,49.9-38.224-38.949-6.484-60.184-24.952C-336.858,904.263-386.228,943.019-376.958,964.784Z" fill="#575a74"></path><path id="Path_382" data-name="Path 382" d="M-296.848,1003.256a3.129,3.129,0,0,1,2.175-2.233c3.718-1.059,12.228-2.443,13.94,6.358,1.879,9.665-9.469,16.369-17.478,16.2a3.147,3.147,0,0,1-3.024-3.266,3.117,3.117,0,0,1,.107-.7Z" fill="#f1ccbb"></path><path id="Path_383" data-name="Path 383" d="M-364.93,1076.154s-41.655-5.1-52.207,5.723c-16.552,16.971-5.495,59.445-11.573,117.646-10.4,99.537,11.492,125.152,12.874,127.207,4.158,6.184,158.116,4.392,160.75,3.05,5.31-2.707,19.912-68.532,10.037-132.232-5.815-37.505,12.514-93.528-7.725-111.287-11.6-10.18-45.755-15.287-51.737-10.107C-319.9,1089.483-334.145,1102.934-364.93,1076.154Z" fill="#303886"></path><path id="Path_384" data-name="Path 384" d="M-404.879,1169.079l-44.947-33.985s-25.437,130.656-20.76,146.646c8.48,28.994,71.95,41,71.95,41l8.884-20.653c-4.285,4.292-34.863-25.6-37.061-31.636C-429.54,1262.968-404.879,1169.079-404.879,1169.079Z" fill="#f1ccbb"></path><path id="Path_385" data-name="Path 385" d="M-457.262,1159.775s13.014-69.9,41.084-78.435c38.926-11.837,16.983,89.272,16.983,89.272S-439.073,1170.187-457.262,1159.775Z" fill="#303886"></path><path id="Path_386" data-name="Path 386" d="M-269.509,1172.265l44.946-33.985s25.442,130.656,20.761,146.646c-8.481,28.994-75.135,34.629-75.135,34.629l-8.884-20.652c4.285,4.292,38.048-19.233,40.246-25.265C-244.848,1266.154-269.509,1172.265-269.509,1172.265Z" fill="#f1ccbb"></path><path id="Path_387" data-name="Path 387" d="M-217.126,1162.96s-12.547-73.308-41.083-78.436c-31.655-5.689-13.922,88.206-13.922,88.206S-235.315,1173.372-217.126,1162.96Z" fill="#303886"></path><path id="Path_388" data-name="Path 388" d="M-335.564,1296.513" fill="none" stroke="#1a1552" stroke-linecap="round" stroke-linejoin="round" stroke-width="2"></path><path id="Path_389" data-name="Path 389" d="M-331.27,1154.786" fill="none" stroke="#1a1552" stroke-linecap="round" stroke-linejoin="round" stroke-width="2"></path><path id="Path_390" data-name="Path 390" d="M-232.785,1383.549s74.238.67,76.917,7.375,4.673,24.739-1,25.49-73.113,9.348-85.521,4.606S-232.785,1383.549-232.785,1383.549Z" fill="#de2f54"></path><path id="Path_391" data-name="Path 391" d="M-532.726,1324.727c3.318-10.656,15.015-29.57,37.312-24.341s259.6,74.775,263.852,84.332,1.593,38.755-10.617,37.693-277.454-52.38-287.54-66.183C-538.384,1344.372-534.936,1331.826-532.726,1324.727Z" fill="#575a74"></path><path id="Path_392" data-name="Path 392" d="M-434.9,1383.549s-73.667,2.683-76.144,9.465-3.93,24.868,1.758,25.45,73.361,7.152,85.62,2.04S-434.9,1383.549-434.9,1383.549Z" fill="#de2f54"></path><path id="Path_393" data-name="Path 393" d="M-134.969,1324.727c-3.318-10.656-15.015-29.57-37.312-24.341s-259.6,74.775-263.852,84.332-1.592,38.755,10.618,37.693,277.453-52.38,287.541-66.183C-129.31,1344.372-132.758,1331.826-134.969,1324.727Z" fill="#4e5166"></path><rect id="Rectangle_192" data-name="Rectangle 192" width="182.22" height="143.107" rx="7.222" transform="translate(-430.09 1190.09)" fill="#575a74"></rect><rect id="Rectangle_193" data-name="Rectangle 193" width="13.391" height="13.391" transform="matrix(0.613, -0.79, 0.79, 0.613, -348.376, 1262.824)" fill="#ced0f6"></rect></g></svg> 